<?xml version="1.0" standalone="no"?>
<!DOCTYPE svg PUBLIC "-//W3C//DTD SVG 20010904//EN"
 "http://www.w3.org/TR/2001/REC-SVG-20010904/DTD/svg10.dtd">
<svg version="1.0" xmlns="http://www.w3.org/2000/svg"
 width="650.000000pt" height="190.000000pt" viewBox="0 0 650.000000 190.000000"
 preserveAspectRatio="xMidYMid meet">

<g transform="translate(0.000000,190.000000) scale(0.100000,-0.100000)"
fill="#000000" stroke="none">
<path d="M320 1863 c-82 -13 -280 -94 -280 -114 0 -11 -1 -11 95 6 44 8 106
23 137 35 73 25 159 27 180 3 22 -26 48 -110 48 -155 0 -44 -20 -59 -52 -39
-11 7 -21 11 -22 9 -6 -7 31 -958 41 -1078 l8 -85 6 100 c4 55 14 321 23 590
9 270 20 517 24 550 l7 60 60 3 c82 5 129 -12 179 -62 96 -96 103 -272 13
-356 -34 -33 -76 -52 -142 -67 l-60 -13 75 4 c122 5 214 65 260 169 65 146 16
286 -118 338 -46 18 -80 22 -177 24 l-120 1 -13 36 c-8 22 -23 39 -36 42 -23
6 -96 6 -136 -1z"/>
<path d="M290 1771 c-105 -33 -288 -145 -270 -165 3 -3 46 9 95 26 74 26 106
32 180 32 78 1 96 -2 132 -23 24 -14 46 -21 50 -17 9 8 -23 134 -38 153 -16
18 -83 16 -149 -6z"/>
<path d="M4874 1290 c-27 -11 -37 -36 -23 -61 12 -24 47 -22 63 3 8 13 8 23
-1 37 -11 18 -9 20 20 24 l32 4 -35 1 c-19 0 -44 -3 -56 -8z"/>
<path d="M4995 1265 c28 -27 32 -61 11 -91 -18 -25 -87 -56 -199 -90 -112 -33
-152 -65 -152 -122 0 -39 25 -82 48 -82 6 0 0 11 -12 24 -28 30 -23 66 11 88
37 24 126 50 148 43 36 -11 60 -54 60 -106 0 -40 -5 -55 -31 -84 -60 -68 -208
-85 -299 -34 -91 51 -114 165 -48 237 l23 25 -30 -17 c-49 -28 -77 -78 -77
-134 0 -111 81 -181 219 -190 91 -6 150 10 201 54 50 43 66 81 60 146 -5 43
-11 57 -41 84 l-35 33 62 21 c84 28 121 66 121 125 0 32 -6 50 -24 69 -14 14
-28 26 -32 26 -5 0 3 -11 16 -25z"/>
<path d="M4558 1264 c-60 -32 -64 -89 -10 -144 28 -28 50 -41 80 -46 28 -4 42
-3 42 5 0 6 -17 11 -39 11 -50 0 -71 27 -71 90 0 48 11 70 45 88 l20 11 -20 0
c-11 0 -32 -6 -47 -15z"/>
<path d="M4695 1266 c18 -13 18 -14 -4 -25 -26 -14 -25 -48 2 -65 22 -14 51 3
55 32 4 23 -38 72 -59 72 -7 0 -4 -6 6 -14z"/>
<path d="M2239 1239 c-56 -16 -94 -61 -94 -113 0 -56 20 -84 113 -157 42 -33
82 -70 89 -82 36 -64 -12 -137 -89 -137 -57 0 -89 18 -110 60 l-18 35 0 -48
c0 -42 3 -49 26 -57 43 -17 146 -12 183 8 40 21 71 73 71 117 0 45 -43 105
-113 155 -87 63 -107 87 -107 126 0 49 32 74 95 74 57 0 91 -19 98 -53 2 -12
5 -3 6 19 1 27 -4 44 -13 47 -31 12 -103 15 -137 6z"/>
<path d="M3925 1241 c-72 -18 -112 -74 -100 -139 7 -37 27 -59 159 -177 68
-61 75 -98 27 -146 -25 -24 -38 -29 -79 -29 -56 0 -107 32 -115 73 -2 12 -5 1
-6 -26 -1 -43 2 -48 27 -58 15 -6 60 -9 100 -7 68 3 74 5 110 41 33 33 37 43
37 86 0 59 -18 87 -96 149 -110 86 -119 96 -119 136 0 52 28 76 89 76 65 0 81
-7 97 -44 l13 -31 1 41 c0 27 -5 44 -14 47 -28 11 -102 15 -131 8z"/>
<path d="M6243 1240 c-142 -21 -223 -112 -223 -252 1 -107 44 -179 135 -226
40 -21 68 -27 142 -30 155 -7 165 -3 178 83 l6 40 -15 -31 c-23 -51 -51 -64
-136 -64 -68 0 -82 3 -130 33 -76 45 -113 107 -118 197 -9 154 61 230 213 230
87 0 151 -26 161 -64 9 -38 24 -21 24 29 l0 43 -77 7 c-43 4 -85 8 -93 9 -8 2
-38 0 -67 -4z"/>
<path d="M1034 1225 c20 -10 21 -20 24 -228 1 -129 -2 -225 -7 -236 -10 -17
-2 -19 110 -25 132 -8 149 -3 149 42 l0 26 -16 -22 c-13 -19 -24 -22 -83 -22
-39 0 -72 5 -79 12 -8 8 -12 48 -12 115 l0 103 58 0 c58 0 85 -12 94 -40 3 -8
7 6 9 32 4 41 2 45 -13 37 -9 -5 -46 -9 -82 -9 l-66 0 0 100 0 100 63 0 c63 0
90 -11 99 -40 3 -8 7 3 9 25 l4 40 -141 0 c-103 0 -135 -3 -120 -10z"/>
<path d="M1550 1230 c20 -5 26 -15 33 -50 13 -68 2 -406 -13 -425 -11 -13 -5
-15 44 -15 52 0 56 1 42 16 -12 12 -16 37 -16 105 l0 89 50 0 49 0 75 -95 c42
-52 84 -99 95 -105 11 -5 39 -10 63 -10 l43 0 -34 18 c-18 10 -69 60 -112 112
l-78 94 33 37 c61 66 69 137 23 188 -34 36 -63 43 -197 45 -69 2 -114 0 -100
-4z m223 -38 c54 -49 62 -149 16 -198 -21 -22 -30 -25 -84 -22 l-60 3 -3 114
c-2 85 1 117 10 123 19 13 99 0 121 -20z"/>
<path d="M2652 1230 c20 -5 24 -15 31 -65 11 -82 1 -407 -14 -415 -6 -4 46
-10 116 -14 70 -4 131 -4 135 1 4 4 10 26 13 48 4 22 4 33 0 25 -16 -41 -35
-50 -104 -50 -85 0 -89 6 -89 134 l0 96 64 0 c43 0 69 -5 79 -15 13 -12 16
-12 21 8 11 40 8 49 -13 37 -11 -5 -49 -10 -85 -10 l-66 0 0 100 0 100 64 0
c79 0 96 -6 97 -34 0 -20 1 -20 9 -1 5 11 9 29 9 40 1 19 -5 20 -145 20 -80 0
-135 -2 -122 -5z"/>
<path d="M3142 1228 l26 -9 4 -172 c3 -159 5 -176 28 -222 19 -38 35 -55 70
-72 80 -41 211 -24 262 34 37 41 48 100 48 257 0 153 5 178 39 188 7 2 -18 4
-57 4 -57 0 -66 -2 -49 -11 21 -10 22 -16 22 -190 0 -170 -1 -182 -23 -216
-61 -99 -204 -90 -259 16 -11 20 -17 70 -21 161 -6 159 2 222 28 232 11 4 -18
7 -63 8 -59 0 -74 -2 -55 -8z"/>
<path d="M5448 1223 c17 -7 18 -453 0 -471 -9 -9 1 -12 48 -12 45 1 55 3 42
11 -15 8 -18 25 -18 104 l0 95 49 0 50 0 66 -85 c84 -108 107 -125 159 -125
l41 1 -28 15 c-15 8 -64 58 -107 111 l-80 97 29 30 c40 43 51 68 51 118 0 92
-46 118 -202 117 -62 0 -107 -3 -100 -6z m201 -30 c55 -41 65 -140 20 -197
-19 -25 -26 -27 -83 -24 l-61 3 -3 109 c-1 61 0 116 3 124 8 20 89 10 124 -15z"/>
<path d="M4767 963 c-12 -12 -7 -38 14 -62 l20 -24 21 20 c30 31 18 73 -21 73
-15 0 -31 -3 -34 -7z"/>
<path d="M4733 873 c9 -2 25 -2 35 0 9 3 1 5 -18 5 -19 0 -27 -2 -17 -5z"/>
<path d="M2814 273 c68 -11 102 -61 93 -140 -4 -35 -12 -53 -32 -70 -14 -13
-21 -23 -15 -23 7 0 25 13 40 30 72 77 29 199 -72 205 -24 1 -30 0 -14 -2z"/>
<path d="M3251 271 c26 -4 54 -13 63 -20 13 -11 16 -11 16 2 0 16 -43 28 -94
26 -23 -1 -20 -3 15 -8z"/>
<path d="M4432 271 c48 -10 75 -35 89 -81 14 -46 -3 -113 -34 -135 -12 -8 -17
-15 -11 -15 25 0 66 60 71 102 9 81 -28 126 -109 134 l-43 3 37 -8z"/>
<path d="M4790 276 c0 -2 13 -6 29 -8 17 -2 28 -1 25 4 -5 8 -54 12 -54 4z"/>
<path d="M2067 263 c-16 -26 -84 -223 -77 -223 5 0 15 19 22 43 14 39 17 42
55 45 40 3 41 2 55 -40 9 -25 22 -44 32 -46 14 -3 15 0 6 15 -6 10 -28 63 -49
117 -21 55 -41 95 -44 89z m12 -55 c25 -68 25 -68 -13 -68 l-35 0 16 45 c8 25
17 45 19 45 3 0 8 -10 13 -22z"/>
<path d="M2370 155 c0 -85 3 -115 13 -115 6 0 23 -3 37 -5 24 -5 24 -5 3 4
-20 9 -23 18 -23 66 0 51 2 55 23 55 45 0 76 -59 52 -97 -16 -23 -16 -24 3
-14 40 21 42 61 5 99 -20 19 -36 26 -55 24 -27 -3 -28 -2 -28 47 0 39 -4 51
-15 51 -12 0 -15 -19 -15 -115z"/>
<path d="M2448 258 c7 -7 12 -25 12 -41 0 -16 4 -26 10 -22 23 14 4 75 -24 75
-6 0 -5 -5 2 -12z"/>
<path d="M2721 235 c-37 -43 -42 -102 -12 -151 21 -34 75 -58 113 -51 18 3 16
5 -8 6 -70 3 -118 85 -95 163 7 20 21 44 34 53 12 8 16 15 10 15 -6 0 -25 -16
-42 -35z"/>
<path d="M3157 249 c-55 -43 -54 -149 3 -190 32 -24 106 -34 143 -20 24 10 27
15 27 61 0 37 -4 50 -14 50 -11 0 -16 -15 -18 -52 -3 -51 -4 -53 -35 -56 -42
-4 -89 21 -108 58 -29 56 -14 138 29 158 11 6 16 11 10 11 -6 1 -23 -8 -37
-20z"/>
<path d="M3600 261 c0 -5 -3 -17 -7 -27 -4 -11 -3 -15 4 -11 6 4 15 -5 21 -21
5 -15 13 -35 17 -44 6 -15 1 -18 -30 -18 -26 0 -36 4 -32 13 11 30 19 62 14
57 -11 -10 -65 -170 -58 -170 5 0 14 20 21 45 12 44 13 45 54 45 40 0 43 -2
57 -42 9 -25 23 -44 33 -46 16 -3 16 -2 3 20 -8 12 -29 65 -48 115 -30 81 -49
114 -49 84z"/>
<path d="M3910 156 c0 -127 0 -127 80 -124 l35 1 -40 6 -40 6 -3 113 c-2 90
-5 112 -17 112 -12 0 -15 -20 -15 -114z"/>
<path d="M4038 253 c67 -33 85 -132 33 -184 -32 -31 -31 -35 1 -18 11 6 29 31
39 55 17 37 18 50 9 84 -12 43 -56 80 -95 80 -15 0 -11 -5 13 -17z"/>
<path d="M4347 249 c-86 -67 -28 -221 82 -218 l36 1 -38 8 c-58 11 -89 48 -95
112 -4 47 -1 58 23 86 31 37 28 40 -8 11z"/>
<path d="M4762 258 c-25 -25 -13 -63 33 -108 42 -42 55 -73 38 -96 -5 -5 0 -1
10 9 28 31 20 57 -33 108 -52 50 -59 66 -38 87 7 7 10 12 7 12 -3 0 -10 -5
-17 -12z"/>
<path d="M4740 52 c0 -13 43 -26 62 -19 7 3 2 6 -12 6 -15 1 -31 6 -38 13 -9
9 -12 9 -12 0z"/>
</g>
</svg>
