<?xml version="1.0" encoding="UTF-8"?>
<!DOCTYPE svg PUBLIC "-//W3C//DTD SVG 1.1//EN" "http://www.w3.org/Graphics/SVG/1.1/DTD/svg11.dtd">
<!-- Creator: CorelDRAW X8 -->
<svg xmlns="http://www.w3.org/2000/svg" xml:space="preserve" width="200mm" height="150mm" version="1.1" style="shape-rendering:geometricPrecision; text-rendering:geometricPrecision; image-rendering:optimizeQuality; fill-rule:evenodd; clip-rule:evenodd"
viewBox="0 0 20000 15000"
 xmlns:xlink="http://www.w3.org/1999/xlink">
 <defs>
  <style type="text/css">
   <![CDATA[
    .fil0 {fill:#2B2A29;fill-rule:nonzero}
    .fil1 {fill:#892A1F;fill-rule:nonzero}
    .fil2 {fill:#1F1B20;fill-rule:nonzero}
   ]]>
  </style>
 </defs>
 <g id="Capa_x0020_1">
  <metadata id="CorelCorpID_0Corel-Layer"/>
  <g id="_2219004303888">
   <path class="fil0" d="M7195 9393c-3,0 -6,2 -7,6l-45 132c-6,18 -10,36 -10,49 0,15 14,22 27,22 2,0 4,0 6,0 8,0 10,1 10,4 0,5 -7,6 -13,6 -18,0 -48,-2 -56,-2 -8,0 -49,2 -84,2 -10,0 -14,-1 -14,-6 0,-3 3,-4 10,-4 5,0 12,-1 18,-1 34,-5 49,-33 62,-70l169 -462c9,-25 12,-29 16,-29 5,0 8,4 17,27 11,28 128,335 173,448 27,66 48,78 64,82 11,4 23,5 29,5 4,0 8,1 8,4 0,5 -7,6 -15,6 -11,0 -65,0 -116,-1 -15,-1 -23,-1 -23,-5 0,-3 2,-5 5,-5 5,-2 9,-9 5,-21l-69 -182c-2,-3 -3,-5 -7,-5l-160 0zm150 -27l0 0c4,0 4,-2 3,-5l-70 -201c-4,-11 -8,-11 -11,0l-66 201c-1,4 0,5 2,5l142 0z"/>
   <path class="fil0" d="M7979 9266c0,-116 0,-137 -1,-161 -2,-25 -8,-37 -32,-42 -6,-2 -19,-2 -22,-2 -7,0 -10,-2 -10,-5 0,-4 4,-6 12,-6 34,0 80,3 84,3 18,0 47,-3 81,-3 122,0 149,75 149,112 0,61 -35,97 -70,134 55,17 129,70 129,157 0,79 -63,162 -190,162 -8,0 -32,-2 -53,-3 -22,-1 -43,-2 -46,-2 -24,0 -47,2 -73,2 -8,0 -12,-1 -12,-5 0,-2 2,-5 12,-5 6,0 11,-1 17,-2 15,-3 18,-20 21,-42 4,-31 4,-90 4,-161l0 -131zm59 16l0 0c0,5 2,7 6,8 4,1 18,3 45,3 42,0 52,-1 68,-19 15,-18 26,-45 26,-75 0,-62 -27,-128 -100,-128 -8,0 -24,1 -36,4 -6,1 -9,4 -9,8l0 199zm0 79l0 0c0,57 0,150 1,161 2,36 2,47 25,58 21,9 53,11 66,11 40,0 105,-22 105,-106 0,-44 -15,-109 -72,-148 -26,-18 -44,-20 -62,-22 -10,-1 -47,-1 -58,-1 -3,0 -5,1 -5,5l0 42z"/>
   <path class="fil0" d="M8701 9331c0,-121 88,-291 293,-291 167,0 292,105 292,279 0,166 -117,304 -296,304 -204,0 -289,-159 -289,-292zm514 9l0 0c0,-179 -109,-275 -226,-275 -124,0 -217,82 -217,245 0,173 104,285 238,285 67,0 205,-39 205,-255z"/>
   <path class="fil0" d="M10185 9549c0,34 -1,35 -10,40 -47,26 -114,34 -157,34 -57,0 -162,-8 -245,-80 -45,-39 -88,-119 -88,-212 0,-119 58,-203 124,-244 67,-42 140,-47 198,-47 47,0 99,10 113,13 16,3 42,6 61,7 7,1 9,4 9,7 0,10 -6,31 -6,105 0,12 -1,16 -6,16 -4,0 -5,-5 -5,-11 -1,-11 -5,-32 -16,-49 -19,-29 -79,-61 -175,-61 -47,0 -102,5 -159,49 -43,35 -74,102 -74,189 0,105 53,181 79,206 59,58 127,80 195,80 27,0 65,-5 85,-16 9,-5 15,-13 15,-26l0 -126c0,-60 -4,-69 -34,-77 -6,-1 -18,-2 -25,-2 -3,0 -6,-1 -6,-4 0,-5 4,-6 12,-6 33,0 80,2 84,2 4,0 50,-2 73,-2 8,0 12,1 12,6 0,3 -3,4 -6,4 -5,0 -10,1 -19,2 -20,4 -26,17 -27,43 -2,23 -2,46 -2,77l0 83z"/>
   <path class="fil0" d="M10742 9393c-4,0 -6,2 -7,6l-45 132c-7,18 -10,36 -10,49 0,15 14,22 26,22 3,0 5,0 7,0 8,0 10,1 10,4 0,5 -7,6 -14,6 -17,0 -47,-2 -55,-2 -9,0 -49,2 -84,2 -10,0 -14,-1 -14,-6 0,-3 3,-4 10,-4 5,0 12,-1 18,-1 34,-5 49,-33 62,-70l169 -462c9,-25 12,-29 16,-29 5,0 8,4 17,27 11,28 128,335 173,448 27,66 48,78 64,82 11,4 23,5 29,5 4,0 8,1 8,4 0,5 -7,6 -15,6 -11,0 -65,0 -117,-1 -14,-1 -22,-1 -22,-5 0,-3 2,-5 5,-5 5,-2 9,-9 5,-21l-69 -182c-2,-3 -3,-5 -7,-5l-160 0zm150 -27l0 0c4,0 4,-2 3,-5l-70 -201c-4,-11 -8,-11 -11,0l-66 201c-1,4 0,5 2,5l142 0z"/>
   <path class="fil0" d="M11526 9266c0,-116 0,-137 -2,-161 -1,-25 -5,-37 -29,-42 -6,-2 -19,-2 -26,-2 -5,0 -8,-2 -8,-5 0,-4 4,-6 12,-6 34,0 80,3 84,3 9,0 56,-3 100,-3 74,0 210,-6 299,85 37,39 72,100 72,189 0,94 -39,166 -81,210 -32,33 -98,85 -225,85 -32,0 -71,-2 -103,-4 -33,-3 -58,-5 -62,-5 -1,0 -14,0 -30,1 -14,0 -32,1 -43,1 -8,0 -12,-1 -12,-6 0,-2 2,-4 8,-4 8,-1 14,-1 21,-3 14,-3 18,-19 21,-41 4,-31 4,-90 4,-161l0 -131zm62 80l0 0c0,79 1,147 2,162 1,18 2,48 8,56 10,14 39,30 126,30 70,0 133,-25 177,-69 39,-38 60,-110 60,-178 0,-94 -41,-155 -72,-187 -69,-74 -154,-84 -243,-84 -15,0 -42,2 -48,5 -7,3 -9,6 -9,15 -1,25 -1,101 -1,158l0 92z"/>
   <path class="fil0" d="M12426 9331c0,-121 88,-291 293,-291 168,0 292,105 292,279 0,166 -117,304 -296,304 -204,0 -289,-159 -289,-292zm514 9l0 0c0,-179 -108,-275 -226,-275 -124,0 -217,82 -217,245 0,173 104,285 238,285 67,0 205,-39 205,-255z"/>
   <path class="fil0" d="M13441 9603c-10,-6 -11,-8 -11,-29 0,-37 3,-66 4,-78 1,-9 2,-12 6,-12 4,0 5,2 5,8 0,7 0,17 2,27 11,55 61,76 110,76 72,0 107,-51 107,-99 0,-51 -22,-81 -86,-133l-33 -28c-79,-65 -97,-111 -97,-161 0,-80 60,-134 154,-134 29,0 51,3 69,7 14,3 20,4 26,4 6,0 8,2 8,5 0,4 -3,29 -3,79 0,12 -2,17 -6,17 -4,0 -5,-4 -6,-9 0,-9 -5,-30 -9,-38 -5,-8 -25,-39 -93,-39 -51,0 -92,32 -92,86 0,43 20,69 91,125l21 16c88,70 108,116 108,175 0,31 -11,87 -63,124 -32,22 -72,31 -112,31 -35,0 -69,-5 -100,-20z"/>
   <path class="fil0" d="M3602 5976c20,0 26,-22 26,-39 0,-70 -52,-236 -78,-305 -27,-53 -48,-74 -114,-74 -309,0 -675,222 -858,375 -26,17 -35,34 -35,56 0,9 9,22 22,22 13,0 26,-4 56,-17 140,-66 375,-144 624,-144 135,0 248,56 283,87 39,35 52,39 74,39z"/>
   <path class="fil0" d="M4555 5741c-48,-45 -185,-173 -564,-173 -95,0 -207,4 -290,7 -19,1 -36,-13 -39,-32 -4,-25 -8,-48 -11,-65 -18,-56 -36,-81 -100,-91 -305,-51 -703,109 -908,230 -29,13 -40,28 -44,50 -1,9 5,23 18,25 13,2 27,0 59,-8 79,-22 187,-44 307,-53 145,-66 304,-115 453,-115 85,0 120,36 151,97l1 2 0 2c18,46 81,234 81,320 0,47 -27,81 -67,81 -35,0 -58,-12 -101,-50 -5,-4 -12,-9 -20,-14 20,584 84,2542 116,2732 2,10 8,10 9,1 38,-216 123,-2952 123,-2952 0,-30 7,-52 25,-58 27,-12 79,-18 130,-18 70,0 255,-12 416,152 161,164 170,367 170,467 0,280 -230,495 -525,495 -64,0 -82,3 -82,27 0,16 18,22 34,22 15,3 48,3 63,3 431,0 747,-292 747,-723 0,-160 -85,-297 -152,-361z"/>
   <path class="fil0" d="M4951 7553c0,149 0,270 -9,333 -7,46 -11,76 -42,82 -14,2 -34,7 -49,7 -9,0 -12,7 -12,13 0,9 9,12 25,12 25,0 62,-1 92,-3 35,-2 66,-2 69,-2 24,0 65,0 132,4 65,1 158,5 277,5 62,0 78,0 89,-40 9,-32 22,-137 22,-148 0,-11 -2,-24 -11,-24 -9,0 -13,6 -17,24 -9,61 -30,89 -72,107 -42,16 -118,16 -159,16 -158,0 -187,-20 -190,-123 -2,-31 0,-210 0,-263l0 -128c0,-6 2,-11 11,-11 27,0 197,2 240,7 62,8 76,26 82,47 7,20 7,37 7,51 0,9 4,15 11,15 11,0 14,-17 14,-29 0,-11 4,-69 8,-100 3,-51 12,-76 12,-85 0,-9 -3,-13 -9,-13 -5,0 -12,9 -23,20 -17,16 -40,18 -78,22 -36,4 -246,4 -266,4 -9,0 -9,-6 -9,-17l0 -418c0,-11 2,-16 9,-16 18,0 202,2 230,5 87,11 103,22 114,47 7,18 9,44 9,55 0,12 3,20 12,20 8,0 13,-9 15,-17 3,-18 7,-87 9,-101 4,-44 13,-62 13,-72 0,-8 -2,-15 -8,-15 -7,0 -14,5 -21,7 -13,2 -42,8 -73,9 -36,2 -369,0 -380,0 -9,0 -112,-3 -184,-3 -19,0 -26,3 -26,12 0,6 7,13 13,13 14,0 41,2 54,4 53,7 62,32 65,85 4,49 4,92 4,331l0 271zm997 0c0,149 0,270 -9,333 -7,46 -11,75 -41,82 -15,4 -35,7 -49,7 -9,0 -13,7 -13,13 0,9 9,12 25,12 49,0 156,-5 158,-5 7,0 108,5 195,5 18,0 26,-5 26,-12 0,-6 -2,-13 -13,-13 -15,0 -49,-3 -71,-7 -49,-7 -58,-36 -63,-82 -7,-63 -7,-182 -7,-331l0 -36c0,-9 3,-13 11,-13l202 4c11,0 15,2 22,9 34,42 105,141 172,224 90,116 148,191 217,227 40,21 80,30 170,30l100 0c29,0 38,-3 38,-12 0,-6 -6,-13 -15,-13 -9,0 -25,0 -56,-5 -40,-6 -92,-20 -177,-107 -92,-96 -203,-235 -333,-398 148,-127 195,-237 195,-351 0,-107 -70,-181 -110,-210 -83,-58 -196,-67 -297,-67 -49,0 -183,3 -199,3 -9,0 -116,-3 -188,-3 -18,0 -26,3 -26,12 0,6 8,13 13,13 15,0 42,2 54,4 53,7 62,32 66,85 3,49 3,92 3,331l0 271zm138 -635c0,-9 5,-14 12,-18 17,-4 67,-9 114,-9 171,0 276,110 276,302 0,118 -42,199 -96,236 -38,25 -82,27 -120,27 -70,0 -152,-11 -175,-24 -8,-5 -11,-11 -11,-20l0 -494zm1160 1102c87,0 186,-10 253,-54 114,-74 149,-172 149,-262 0,-132 -67,-239 -261,-371l-45 -31c-158,-107 -206,-163 -206,-261 0,-108 95,-166 211,-166 143,0 196,58 207,76 9,16 21,58 23,76 2,12 4,20 15,20 10,1 12,-10 12,-33 0,-105 8,-156 8,-163 0,-9 -4,-11 -17,-11 -12,0 -25,0 -56,-7 -38,-11 -101,-20 -165,-20 -210,0 -353,109 -353,290 0,107 57,201 229,329l72 54c141,105 201,158 201,268 0,116 -82,205 -239,205 -107,0 -226,-40 -252,-152 -5,-22 -5,-44 -5,-56 0,-13 -6,-18 -15,-18 -9,0 -12,9 -12,25 -2,25 -9,87 -9,163 0,41 2,47 23,58 65,31 158,41 232,41zm814 -467c0,149 0,270 -9,333 -7,46 -11,76 -41,82 -15,2 -35,7 -49,7 -9,0 -13,7 -13,13 0,9 9,12 25,12 26,0 62,-1 93,-3 34,-2 65,-2 69,-2 23,0 65,0 132,4 65,1 157,5 277,5 61,0 77,0 88,-40 9,-32 22,-137 22,-148 0,-11 -2,-24 -11,-24 -9,0 -13,6 -16,24 -9,61 -31,89 -73,107 -41,16 -117,16 -159,16 -157,0 -186,-20 -190,-123 -2,-31 0,-210 0,-263l0 -128c0,-6 2,-11 11,-11 27,0 197,2 241,7 61,8 76,26 81,47 7,20 7,37 7,51 0,9 4,15 11,15 11,0 15,-17 15,-29 0,-11 3,-69 7,-100 4,-51 13,-76 13,-85 0,-9 -4,-13 -9,-13 -6,0 -13,9 -24,20 -16,16 -40,18 -78,22 -36,4 -246,4 -266,4 -9,0 -9,-6 -9,-17l0 -418c0,-11 2,-16 9,-16 18,0 203,2 230,5 87,11 103,22 114,47 7,18 9,44 9,55 0,12 4,20 13,20 7,0 12,-9 14,-17 4,-18 8,-87 9,-101 4,-44 13,-62 13,-72 0,-8 -2,-15 -7,-15 -7,0 -15,5 -22,7 -13,2 -42,8 -72,9 -37,2 -370,0 -380,0 -9,0 -113,-3 -185,-3 -18,0 -25,3 -25,12 0,6 7,13 12,13 15,0 42,2 55,4 52,7 61,32 65,85 3,49 3,92 3,331l0 271zm916 -45c0,225 62,331 140,404 112,105 278,108 331,108 94,0 217,-12 333,-112 126,-108 148,-295 148,-461l0 -165c0,-239 -2,-282 2,-331 4,-51 13,-76 56,-85 20,-4 29,-4 40,-4 7,0 13,-7 13,-13 0,-9 -8,-12 -26,-12 -47,0 -123,3 -134,3 -9,0 -101,-3 -172,-3 -18,0 -25,3 -25,12 0,6 5,13 13,13 14,0 41,2 54,4 52,7 62,36 63,85 2,49 4,92 4,331l0 194c0,157 -16,284 -91,372 -54,66 -148,109 -246,109 -90,0 -159,-13 -237,-83 -69,-62 -117,-154 -117,-377l0 -215c0,-239 0,-282 3,-331 4,-51 13,-78 54,-85 20,-4 29,-4 40,-4 8,0 15,-7 15,-13 0,-9 -9,-12 -27,-12 -47,0 -147,3 -161,3 -15,0 -111,-3 -183,-3 -18,0 -26,3 -26,12 0,6 8,13 13,13 15,0 42,2 54,4 53,7 62,36 66,85 3,49 3,92 3,331l0 226zm1504 512c87,0 187,-10 254,-54 114,-74 148,-172 148,-262 0,-132 -67,-239 -261,-371l-45 -31c-157,-107 -206,-163 -206,-261 0,-108 96,-166 212,-166 143,0 195,58 206,76 9,16 22,58 23,76 2,12 4,20 15,20 11,1 13,-10 13,-33 0,-105 7,-156 7,-163 0,-9 -4,-11 -16,-11 -13,0 -26,0 -57,-7 -38,-11 -101,-20 -164,-20 -210,0 -353,109 -353,290 0,107 56,201 228,329l72 54c141,105 201,158 201,268 0,116 -81,205 -239,205 -107,0 -226,-40 -251,-152 -6,-22 -6,-44 -6,-56 0,-13 -5,-18 -14,-18 -9,0 -13,9 -13,25 -2,25 -9,87 -9,163 0,41 2,47 24,58 65,31 157,41 231,41z"/>
   <path class="fil0" d="M17092 8020c103,0 222,-9 287,-34 28,-11 31,-16 40,-45 16,-53 38,-187 38,-198 0,-10 -7,-21 -14,-21 -11,0 -13,5 -17,21 -5,29 -27,95 -61,129 -64,63 -143,72 -263,72 -340,0 -573,-262 -573,-557 0,-156 25,-293 143,-402 56,-52 154,-107 358,-107 141,0 257,38 313,85 42,33 67,94 67,154 0,22 2,33 13,33 9,0 16,-9 18,-33 2,-22 2,-107 4,-157 3,-56 7,-74 7,-87 0,-9 -4,-16 -20,-16 -53,-2 -103,-13 -163,-24 -78,-13 -168,-18 -232,-18 -244,0 -389,72 -485,165 -141,137 -179,316 -179,420 0,146 38,322 194,456 125,108 286,164 525,164z"/>
   <path class="fil1" d="M15101 7553c0,149 0,270 -9,333 -8,46 -11,75 -42,82 -14,3 -34,7 -49,7 -9,0 -13,7 -13,13 0,9 10,12 26,12 49,0 155,-5 157,-5 8,0 109,5 196,5 18,0 25,-5 25,-12 0,-6 -2,-13 -13,-13 -14,0 -48,-4 -70,-7 -49,-7 -58,-36 -63,-82 -8,-63 -8,-182 -8,-331l0 -36c0,-9 4,-13 11,-13l203 4c11,0 14,2 22,9 34,42 104,141 171,224 91,116 149,190 218,227 39,21 79,30 170,30l99 0c29,0 38,-3 38,-12 0,-6 -5,-13 -14,-13 -9,0 -25,0 -56,-5 -40,-6 -93,-20 -178,-107 -92,-96 -202,-235 -333,-398 149,-127 196,-237 196,-351 0,-107 -71,-181 -111,-210 -83,-58 -195,-67 -296,-67 -49,0 -183,3 -199,3 -10,0 -116,-3 -189,-3 -18,0 -25,3 -25,12 0,6 7,13 13,13 14,0 41,2 54,4 52,7 61,32 65,85 4,49 4,92 4,331l0 271zm137 -635c0,-9 6,-14 13,-18 16,-4 67,-9 114,-9 170,0 275,110 275,302 0,118 -42,199 -96,236 -38,25 -81,27 -119,27 -71,0 -152,-11 -176,-24 -7,-5 -11,-11 -11,-20l0 -494z"/>
   <path class="fil2" d="M13868 6688c-87,0 -199,30 -199,125 0,61 48,90 95,90 55,0 102,-38 102,-88 0,-31 -18,-67 -50,-84 5,-11 24,-16 53,-16 113,0 211,79 211,183 0,62 -35,118 -156,174 -134,61 -333,106 -442,143 -164,56 -249,139 -249,264 0,150 121,212 224,212 96,0 215,-52 215,-156 0,-58 -38,-98 -96,-98 -56,0 -99,36 -99,95 0,61 47,85 85,92 -7,27 -76,39 -109,39 -69,0 -166,-50 -166,-145 0,-77 69,-122 159,-157 49,-18 127,-43 209,-69 160,65 182,198 182,263 0,206 -220,331 -476,331 -271,0 -485,-141 -485,-391 0,-168 95,-255 235,-297 29,13 87,40 133,40 30,0 50,-12 50,-34 0,-28 -29,-42 -72,-42 -22,0 -71,4 -112,11 -73,-67 -93,-139 -93,-206 0,-140 87,-216 210,-216 74,0 127,27 138,59 -56,5 -96,46 -96,98 0,59 46,92 94,92 50,0 101,-37 101,-97 0,-38 -20,-86 -67,-125 -37,-30 -96,-54 -188,-54 -202,0 -306,108 -306,226 0,89 61,181 182,234 -92,23 -334,123 -334,386 0,278 273,450 587,450 349,0 552,-214 552,-433 0,-130 -56,-247 -198,-306 105,-33 211,-67 268,-95 96,-48 172,-131 172,-254 0,-153 -116,-244 -264,-244z"/>
  </g>
 </g>
</svg>
