<?xml version="1.0" standalone="no"?>
<!DOCTYPE svg PUBLIC "-//W3C//DTD SVG 20010904//EN"
 "http://www.w3.org/TR/2001/REC-SVG-20010904/DTD/svg10.dtd">
<svg version="1.0" xmlns="http://www.w3.org/2000/svg"
 width="298.000000pt" height="257.000000pt" viewBox="0 0 298.000000 257.000000"
 preserveAspectRatio="xMidYMid meet">

<g transform="translate(0.000000,257.000000) scale(0.100000,-0.100000)"
fill="#000000" stroke="none">
<path d="M963 998 c8 -18 45 -104 82 -190 l69 -158 42 0 42 0 67 158 c38 86
74 172 82 190 l14 33 -42 -3 -43 -3 -37 -85 c-21 -47 -48 -107 -59 -135 l-21
-50 -58 135 -58 135 -47 3 -47 3 14 -33z"/>
<path d="M1392 925 c-30 -13 -31 -16 -20 -40 9 -20 17 -25 32 -20 62 18 94 17
115 -4 11 -11 21 -25 21 -30 0 -4 -32 -11 -70 -13 -56 -4 -76 -10 -95 -28 -25
-23 -32 -61 -19 -95 16 -41 119 -60 162 -29 20 14 22 14 22 0 0 -12 10 -16 40
-16 l40 0 0 100 c0 114 -12 150 -60 175 -36 19 -124 19 -168 0z m148 -175 c0
-42 -80 -65 -103 -29 -20 32 -1 49 53 49 43 0 50 -3 50 -20z"/>
<path d="M1700 795 l0 -145 39 0 39 0 4 96 c3 105 14 124 69 124 49 0 59 -21
59 -126 l0 -94 40 0 40 0 0 105 c0 117 -11 153 -55 173 -36 16 -90 15 -125 -3
-27 -14 -30 -14 -30 0 0 11 -11 15 -40 15 l-40 0 0 -145z"/>
</g>
</svg>
